<svg width="110" height="96" viewBox="0 0 110 96" fill="none" xmlns="http://www.w3.org/2000/svg">
<g clip-path="url(#clip0_4024_33282)">
<path d="M74.2813 28.6617C66.4699 28.6617 58.5186 28.3423 51.0805 26.2569C43.7824 24.2185 37.0816 20.2639 31.1088 15.6892C27.1984 12.7114 23.6427 10.3349 18.5658 10.6918C13.599 10.9623 8.84944 12.8292 5.01488 16.018C-1.44327 21.7105 -0.472678 32.2594 2.11245 39.6427C5.9948 50.7929 17.8098 58.5613 27.8517 63.5869C39.4521 69.4203 52.2004 72.8114 64.9767 74.7558C76.1758 76.4748 90.5666 77.7148 100.273 70.3596C109.185 63.5869 111.63 48.1439 109.446 37.7171C108.917 34.6368 107.287 31.8574 104.864 29.9016C98.602 25.2894 89.2601 28.3705 82.2233 28.5208C79.6102 28.5771 76.9504 28.6429 74.2813 28.6617Z" fill="#FFE5E5" fill-opacity="0.5"/>
<path d="M55.5411 93.0366C74.4624 93.0366 89.801 92.0735 89.801 90.8855C89.801 89.6975 74.4624 88.7344 55.5411 88.7344C36.6199 88.7344 21.2812 89.6975 21.2812 90.8855C21.2812 92.0735 36.6199 93.0366 55.5411 93.0366Z" fill="#F2F2F2"/>
<path d="M7.19824 7.94935L19.3306 6.91606C20.8435 6.78271 22.356 7.17651 23.6149 8.03151C24.8737 8.88651 25.8026 10.1508 26.246 11.6128L37.8744 50.7839L35.5973 54.8889C35.0124 55.9466 34.7237 57.1442 34.7619 58.3541C34.8 59.564 35.1638 60.7407 35.8142 61.7589C36.4646 62.7771 37.3774 63.5985 38.4552 64.1355C39.5329 64.6726 40.7353 64.9052 41.9341 64.8085L88.5037 60.8256" stroke="#FE0000" stroke-linecap="round" stroke-linejoin="round"/>
<path d="M27.9824 17.5566L82.1114 12.935C82.6446 12.889 83.1813 12.9644 83.6816 13.1557C84.1819 13.347 84.633 13.6492 85.0014 14.0399C85.3699 14.4305 85.6462 14.8997 85.8099 15.4126C85.9736 15.9254 86.0205 16.4688 85.9471 17.0024L82.2794 43.6519C82.168 44.4514 81.7927 45.19 81.2137 45.7489C80.6348 46.3078 79.886 46.6544 79.0876 46.733L37.875 50.7816L27.9824 17.5566Z" fill="white" stroke="#FE0000" stroke-linecap="round" stroke-linejoin="round"/>
<path d="M47.1144 73.7862C49.542 73.7862 51.51 71.8054 51.51 69.3619C51.51 66.9184 49.542 64.9375 47.1144 64.9375C44.6868 64.9375 42.7188 66.9184 42.7188 69.3619C42.7188 71.8054 44.6868 73.7862 47.1144 73.7862Z" fill="white" stroke="#FE0000" stroke-linecap="round" stroke-linejoin="round"/>
<path d="M77.7247 71.1768C80.1524 71.1768 82.1204 69.196 82.1204 66.7525C82.1204 64.309 80.1524 62.3281 77.7247 62.3281C75.2971 62.3281 73.3291 64.309 73.3291 66.7525C73.3291 69.196 75.2971 71.1768 77.7247 71.1768Z" fill="white" stroke="#FE0000" stroke-linecap="round" stroke-linejoin="round"/>
<path d="M16.806 5.85423L5.36798 6.83109C4.37677 6.91575 3.64142 7.79316 3.72553 8.79084C3.80963 9.78852 4.68134 10.5287 5.67255 10.444L17.1105 9.46716C18.1017 9.3825 18.8371 8.50509 18.753 7.50741C18.6689 6.50973 17.7972 5.76957 16.806 5.85423Z" fill="#FE0000"/>
<path d="M50.7725 38.1347C50.9957 36.4203 51.7944 34.8342 53.0362 33.6396C54.2781 32.4449 55.8883 31.7134 57.5999 31.5665C59.3115 31.4196 61.0216 31.866 62.4465 32.8317C63.8714 33.7974 64.9255 35.2244 65.4339 36.8759" stroke="#FE0000" stroke-linecap="round" stroke-linejoin="round"/>
<path d="M65.5547 26.3984C65.8527 26.3984 66.1004 26.6424 66.1006 26.9502C66.1006 27.2582 65.8528 27.5029 65.5547 27.5029C65.2568 27.5028 65.0098 27.2581 65.0098 26.9502C65.0099 26.6425 65.2569 26.3986 65.5547 26.3984Z" fill="#FFE5E5" stroke="#FE0000"/>
<path d="M48.9893 27.8047C49.2872 27.8047 49.535 28.0486 49.5352 28.3564C49.5352 28.6644 49.2873 28.9092 48.9893 28.9092C48.6913 28.909 48.4443 28.6643 48.4443 28.3564C48.4445 28.0487 48.6914 27.8049 48.9893 27.8047Z" fill="#FFE5E5" stroke="#FE0000"/>
<path d="M19.5449 68.0547V72.1033" stroke="#FFE5E5" stroke-linecap="round" stroke-linejoin="round"/>
<path d="M17.5391 70.0781H21.5521" stroke="#FFE5E5" stroke-linecap="round" stroke-linejoin="round"/>
<path d="M36.1572 4.86719V8.90641" stroke="#FFE5E5" stroke-linecap="round" stroke-linejoin="round"/>
<path d="M34.1416 6.88281H38.1639" stroke="#FFE5E5" stroke-linecap="round" stroke-linejoin="round"/>
<path d="M93.6834 19.721C94.2091 19.721 94.6353 19.292 94.6353 18.7628C94.6353 18.2337 94.2091 17.8047 93.6834 17.8047C93.1576 17.8047 92.7314 18.2337 92.7314 18.7628C92.7314 19.292 93.1576 19.721 93.6834 19.721Z" fill="white" stroke="#FFE5E5" stroke-linecap="round" stroke-linejoin="round"/>
<path d="M58.108 11.1068C58.6131 11.1068 59.0225 10.6946 59.0225 10.1862C59.0225 9.67778 58.6131 9.26562 58.108 9.26562C57.6028 9.26562 57.1934 9.67778 57.1934 10.1862C57.1934 10.6946 57.6028 11.1068 58.108 11.1068Z" fill="#808080"/>
<path d="M64.2486 77.9114C64.7537 77.9114 65.1632 77.4993 65.1632 76.9909C65.1632 76.4825 64.7537 76.0703 64.2486 76.0703C63.7435 76.0703 63.334 76.4825 63.334 76.9909C63.334 77.4993 63.7435 77.9114 64.2486 77.9114Z" fill="#808080"/>
</g>
<defs>
<clipPath id="clip0_4024_33282">
<rect width="110" height="96" fill="white"/>
</clipPath>
</defs>
</svg>
