<svg width="33" height="32" viewBox="0 0 33 32" fill="none" xmlns="http://www.w3.org/2000/svg">
<path d="M29.8327 13.332V21.332C29.8327 22.7465 29.2708 24.1031 28.2706 25.1033C27.2704 26.1035 25.9138 26.6654 24.4993 26.6654H8.49935C7.08486 26.6654 5.72831 26.1035 4.72811 25.1033C3.72792 24.1031 3.16602 22.7465 3.16602 21.332V13.332H29.8327ZM9.84602 18.6654H9.83268C9.65759 18.6662 9.48438 18.7016 9.32295 18.7694C9.16151 18.8372 9.01502 18.9362 8.89183 19.0606C8.64303 19.3119 8.50425 19.6517 8.50602 20.0054C8.50689 20.1805 8.54225 20.3537 8.61006 20.5151C8.67788 20.6765 8.77682 20.823 8.90125 20.9462C9.02568 21.0694 9.17316 21.1669 9.33526 21.2331C9.49737 21.2993 9.67092 21.3329 9.84602 21.332C10.1996 21.332 10.5388 21.1916 10.7888 20.9415C11.0389 20.6915 11.1793 20.3523 11.1793 19.9987C11.1793 19.6451 11.0389 19.3059 10.7888 19.0559C10.5388 18.8058 10.1996 18.6654 9.84602 18.6654ZM17.8327 18.6654H15.166C14.8124 18.6654 14.4733 18.8058 14.2232 19.0559C13.9732 19.3059 13.8327 19.6451 13.8327 19.9987C13.8327 20.3523 13.9732 20.6915 14.2232 20.9415C14.4733 21.1916 14.8124 21.332 15.166 21.332H17.8327C18.1863 21.332 18.5254 21.1916 18.7755 20.9415C19.0255 20.6915 19.166 20.3523 19.166 19.9987C19.166 19.6451 19.0255 19.3059 18.7755 19.0559C18.5254 18.8058 18.1863 18.6654 17.8327 18.6654ZM24.4993 5.33203C25.9138 5.33203 27.2704 5.89393 28.2706 6.89413C29.2708 7.89432 29.8327 9.25088 29.8327 10.6654H3.16602C3.16602 9.25088 3.72792 7.89432 4.72811 6.89413C5.72831 5.89393 7.08486 5.33203 8.49935 5.33203H24.4993Z" fill="#FE0000"/>
</svg>
